<svg width="300" height="100" viewBox="0 0 300 100" xmlns="http://www.w3.org/2000/svg">
  <!-- First B -->
  <path d="M90 25h25v20h-25v-20z" fill="#000"/>
  <path d="M115 25h10c6 0 10 4 10 10s-4 10-10 10h-10v-20z" fill="#000"/>
  <path d="M90 45h25v20h-25v-20z" fill="#000"/>
  <path d="M115 45h10c6 0 10 4 10 10s-4 10-10 10h-10v-20z" fill="#000"/>
  
  <!-- Second B -->
  <path d="M140 25h25v20h-25v-20z" fill="#000"/>
  <path d="M165 25h10c6 0 10 4 10 10s-4 10-10 10h-10v-20z" fill="#000"/>
  <path d="M140 45h25v20h-25v-20z" fill="#000"/>
  <path d="M165 45h10c6 0 10 4 10 10s-4 10-10 10h-10v-20z" fill="#000"/>
  
  <!-- Third B -->
  <path d="M190 25h25v20h-25v-20z" fill="#000"/>
  <path d="M215 25h10c6 0 10 4 10 10s-4 10-10 10h-10v-20z" fill="#000"/>
  <path d="M190 45h25v20h-25v-20z" fill="#000"/>
  <path d="M215 45h10c6 0 10 4 10 10s-4 10-10 10h-10v-20z" fill="#000"/>
</svg> 