<svg width="32" height="32" viewBox="0 0 32 32" xmlns="http://www.w3.org/2000/svg">
  <rect width="32" height="32" rx="4" fill="#8B2020"/>
  
  <!-- First B -->
  <path d="M4 8h5v6h-5v-6z" fill="#FFFFFF"/>
  <path d="M9 8h2c1.5 0 2.5 1 2.5 3s-1 3-2.5 3h-2v-6z" fill="#FFFFFF"/>
  <path d="M4 14h5v6h-5v-6z" fill="#FFFFFF"/>
  <path d="M9 14h2c1.5 0 2.5 1 2.5 3s-1 3-2.5 3h-2v-6z" fill="#FFFFFF"/>
  
  <!-- Second B -->
  <path d="M14 8h5v6h-5v-6z" fill="#FFFFFF"/>
  <path d="M19 8h2c1.5 0 2.5 1 2.5 3s-1 3-2.5 3h-2v-6z" fill="#FFFFFF"/>
  <path d="M14 14h5v6h-5v-6z" fill="#FFFFFF"/>
  <path d="M19 14h2c1.5 0 2.5 1 2.5 3s-1 3-2.5 3h-2v-6z" fill="#FFFFFF"/>
  
  <!-- Third B -->
  <path d="M24 8h5v6h-5v-6z" fill="#FFFFFF"/>
  <path d="M29 8h1c1.5 0 2 1 2 3s-0.5 3-2 3h-1v-6z" fill="#FFFFFF"/>
  <path d="M24 14h5v6h-5v-6z" fill="#FFFFFF"/>
  <path d="M29 14h1c1.5 0 2 1 2 3s-0.5 3-2 3h-1v-6z" fill="#FFFFFF"/>
</svg> 